<svg width="46" height="54" viewBox="0 0 46 54" fill="none" xmlns="http://www.w3.org/2000/svg">
<g clip-path="url(#clip0_136_157)">
<path d="M38.6399 7.57H6.0699C5.80664 7.56916 5.54817 7.49951 5.32013 7.36795C5.09209 7.23639 4.90241 7.04749 4.7699 6.82C4.63727 6.59231 4.56738 6.33351 4.56738 6.07C4.56738 5.80649 4.63727 5.54769 4.7699 5.32L7.3999 0.75C7.53316 0.523177 7.72301 0.334824 7.95088 0.203361C8.17875 0.0718984 8.43684 0.00182693 8.6999 0L36.5799 0C36.8309 0.000418107 37.0777 0.0638047 37.2979 0.184354C37.518 0.304902 37.7044 0.47876 37.8399 0.69L40.3499 4.63C40.5184 4.87958 40.6085 5.17385 40.6085 5.475C40.6085 5.77615 40.5184 6.07042 40.3499 6.32L39.8499 7C39.7066 7.18273 39.5225 7.32944 39.3125 7.4284C39.1024 7.52737 38.8721 7.57586 38.6399 7.57ZM8.6399 4.57H36.7499L35.7499 3H9.5699L8.6399 4.57Z" fill="white"/>
<path d="M38.2101 53.18H7.10011C6.72131 53.1787 6.35683 53.0351 6.07899 52.7776C5.80114 52.5201 5.63021 52.1676 5.60011 51.79L2.91011 13.23C2.89498 13.0266 2.92179 12.8222 2.98888 12.6295C3.05596 12.4369 3.16189 12.26 3.30011 12.11C3.44091 11.9591 3.61117 11.8386 3.80037 11.756C3.98957 11.6735 4.19368 11.6306 4.40011 11.63H40.7001C40.9042 11.6301 41.1062 11.6718 41.2936 11.7526C41.481 11.8334 41.65 11.9516 41.7901 12.1C41.9299 12.2514 42.0374 12.4297 42.1062 12.6239C42.175 12.8182 42.2035 13.0244 42.1901 13.23L39.7001 51.78C39.6772 52.1594 39.5101 52.5156 39.2331 52.7759C38.9561 53.0361 38.5902 53.1807 38.2101 53.18ZM8.50011 50.18H36.8001L39.1001 14.63H6.00011L8.50011 50.18Z" fill="white"/>
<path d="M44 14.57H1.5C1.10218 14.57 0.720644 14.412 0.43934 14.1307C0.158035 13.8493 0 13.4678 0 13.07L0 6.64999C0 6.25217 0.158035 5.87064 0.43934 5.58933C0.720644 5.30803 1.10218 5.14999 1.5 5.14999H44C44.3978 5.14999 44.7794 5.30803 45.0607 5.58933C45.342 5.87064 45.5 6.25217 45.5 6.64999V13.07C45.5 13.4678 45.342 13.8493 45.0607 14.1307C44.7794 14.412 44.3978 14.57 44 14.57ZM3 11.57H42.46V8.14999H3V11.57Z" fill="white"/>
<path d="M41.2699 40.8H4.20992L2.91992 25.84H42.2299L41.2699 40.8Z" fill="white"/>
</g>
<defs>
<clipPath id="clip0_136_157">
<rect width="45.46" height="53.18" fill="white"/>
</clipPath>
</defs>
</svg>
